HIERARCHY
ROOT pelvis
{
  OFFSET 0 100 0
  CHANNELS 6 Xposition Yposition Zposition Zrotation Xrotation Yrotation
  JOINT pelvis_right_femur
  {
    OFFSET -10.78128 -3.44521 -0.5502486
    CHANNELS 3 Zrotation Xrotation Yrotation
    JOINT right_femur_tibia
    {
      OFFSET -0.8047443 -44.0398 -0.1307829
      CHANNELS 3 Zrotation Xrotation Yrotation
      JOINT right_tibia_foot
      {
        OFFSET 3.006224 -47.83518 -5
        CHANNELS 3 Zrotation Xrotation Yrotation
        End Site
        {
          OFFSET 0 -5 15
        }
      }
    }
  }
  JOINT pelvis_left_femur
  {
    OFFSET 10.78128 -3.44521 -0.5502486
    CHANNELS 3 Zrotation Xrotation Yrotation
    JOINT left_femur_tibia
    {
      OFFSET 0.8047443 -44.0398 -0.1307829
      CHANNELS 3 Zrotation Xrotation Yrotation
      JOINT left_tibia_foot
      {
        OFFSET -4.370144 -48.10324 -4.275266
        CHANNELS 3 Zrotation Xrotation Yrotation
        End Site
        {
          OFFSET 0 -5 15
        }
      }
    }
  }
  JOINT pelvis_spine1
  {
    OFFSET 0 6.468898 -3.129235
    CHANNELS 3 Zrotation Xrotation Yrotation
    JOINT spine1
    {
      OFFSET 0 23.15396 4.99043
      CHANNELS 3 Zrotation Xrotation Yrotation
      JOINT spine2
      {
        OFFSET 0 20.79997 -5.064912
        CHANNELS 3 Zrotation Xrotation Yrotation
        JOINT neck
        {
          OFFSET 0 14.38658 9.616178
          CHANNELS 3 Zrotation Xrotation Yrotation
          End Site
          {
            OFFSET 0 20 0
          }
        }
      }
      JOINT right_manubrium
      {
        OFFSET -5.722621 16.35077 3.967754
        CHANNELS 3 Zrotation Xrotation Yrotation
        JOINT right_clavicle
        {
          OFFSET -13.16364 1.694482 -4.693211
          CHANNELS 3 Zrotation Xrotation Yrotation
          JOINT right_humerus
          {
            OFFSET -28.5034 -0.3100689 -2.792744
            CHANNELS 3 Zrotation Xrotation Yrotation
            JOINT right_radius
            {
              OFFSET -25.15693 0.02248979 -1.271978
              CHANNELS 3 Zrotation Xrotation Yrotation
              End Site
              {
                OFFSET -15 0 0
              }
            }
          }
        }
      }
      JOINT left_manubrium
      {
        OFFSET 5.722621 16.35077 3.967754
        CHANNELS 3 Zrotation Xrotation Yrotation
        JOINT left_clavicle
        {
          OFFSET 13.16364 1.694482 -4.693211
          CHANNELS 3 Zrotation Xrotation Yrotation
          JOINT left_humerus
          {
            OFFSET 29.39168 -1.063119 -2.237045
            CHANNELS 3 Zrotation Xrotation Yrotation
            JOINT left_radius
            {
              OFFSET 24.59957 -0.9528479 0.9047498
              CHANNELS 3 Zrotation Xrotation Yrotation
              End Site
              {
                OFFSET 15 -0 -0
              }
            }
          }
        }
      }
    }
  }
}
MOTION
Frames: 7
Frame Time: 0.0416666666667
0 103.5113 0 1.268495 -1.424493 0.0666399 2.82646 -16.74809 7.966561 -0 36.38207 -0 -5.45657 -15.80525 -3.67153 -7.171882 12.35661 -23.17176 -0 5.0697 -0 6.626598 -18.16112 25.51128 -2.002815 -2.912175 5.915299 2.424324 9.522687 -7.251705 1.611868 20.76987 6.227496 3.087009 -25.86347 9.280368 5.700756 -19.47396 10.74219 83.76433 35.68271 -16.78763 -0 0 16.90082 -7.145723 9.436668 3.609725 7.394408 -20.94512 1.056719 -95.02961 23.02215 23.56254 0 0 -12.74652 13.54665 16.32352 -1.418039
0.2154467 103.3218 1.637708 0.7401746 -0.5803277 0.09519863 3.700916 -19.9213 8.479102 -0 36.44066 -0 -5.258565 -14.97206 -3.897612 -6.682083 12.62694 -23.20097 -0 5.462118 -0 4.810385 -19.86067 24.52549 -1.897709 -2.765451 5.575943 2.629098 9.594922 -7.555509 1.553525 20.51952 6.413431 3.219966 -26.11189 9.281828 5.67421 -19.16438 10.8031 84.4331 35.34297 -17.74993 -0 0 16.03494 -7.438508 9.592601 3.795652 7.518444 -21.22558 0.8540753 -94.37963 22.69603 22.58541 0 0 -13.67552 13.32005 15.92527 -1.185579
0.4377658 103.0482 3.542027 0.07631243 0.2713089 0.1223744 4.887055 -24.11162 8.15689 -0 33.49756 -0 -5.52495 -12.84776 -3.565651 -6.187166 12.76442 -22.17623 -0 6.274856 -0 4.552166 -21.10398 23.59615 -1.821268 -2.694747 5.360046 2.761417 9.628035 -7.755036 1.53477 20.35275 6.520563 3.298543 -26.29285 9.308171 5.663179 -18.97893 10.82019 84.85625 35.10323 -18.38685 -0 0 15.53181 -7.505583 9.667614 3.820197 7.627336 -21.41196 0.7553033 -94.03027 22.52888 21.99703 0 0 -14.24131 13.21776 15.75334 -1.070146
0.6773746 102.6704 5.786722 -0.4506538 1.215642 0.1726784 5.892594 -27.86769 7.791803 -0 29.79153 -0 -5.664147 -10.89248 -3.107432 -5.847311 12.83942 -21.0153 -0 6.845942 -0 4.954918 -21.91147 22.8349 -1.727868 -2.595025 5.085645 2.931595 9.679814 -8.00659 1.50448 20.14394 6.661488 3.39645 -26.50703 9.337317 5.649198 -18.73323 10.85562 85.39261 34.81936 -19.17898 -0 0 14.85741 -7.630631 9.778351 3.890305 7.753021 -21.65062 0.6161957 -93.53886 22.25823 21.2061 0 0 -14.99894 13.12864 15.47548 -0.977042
0.9383802 102.1754 8.495731 -0.8690731 2.264765 0.2830973 6.767161 -31.37173 7.303551 -0 25.28091 -0 -5.738097 -8.786103 -2.522598 -5.650259 13.00991 -19.65701 -0 7.528092 -0 5.795256 -22.40495 22.10797 -1.631175 -2.510347 4.819488 3.100311 9.726008 -8.254882 1.485108 19.93468 6.79528 3.487078 -26.73085 9.386435 5.63947 -18.50099 10.88124 85.91269 34.54084 -19.95839 -0 0 14.22036 -7.677179 9.873208 3.906124 7.894129 -21.8906 0.4992143 -93.08283 21.9883 20.43777 0 0 -15.74122 13.11103 15.23122 -0.956363
1.209045 101.5779 11.76955 -1.191448 3.25673 0.5018696 7.444103 -34.14001 6.721337 -0 20.78375 -0 -5.863051 -6.584479 -1.955174 -5.546552 13.39501 -18.27651 -0 8.591016 -0 6.377238 -22.61798 21.19924 -1.53816 -2.420844 4.552283 3.267177 9.77711 -8.503404 1.462253 19.72622 6.932381 3.579543 -26.93693 9.430203 5.631547 -18.26199 10.9133 86.42903 34.27142 -20.72652 -0 0 13.56503 -7.75263 9.980988 3.945806 8.031698 -22.13645 0.3738473 -92.5973 21.6894 19.63764 0 0 -16.51907 13.10814 14.95739 -0.9549084
1.466948 100.9319 15.68686 -1.480322 4.036677 0.8782815 7.945235 -35.80104 6.07884 -0 17.03203 -0 -6.175598 -4.399259 -1.521681 -5.443071 14.04531 -16.98485 -0 10.41591 -0 6.049268 -22.47687 19.83101 -1.457888 -2.335119 4.307432 3.415388 9.82654 -8.729976 1.438268 19.53849 7.058693 3.666616 -27.103 9.460512 5.626315 -18.03716 10.94667 86.89433 34.02888 -21.41625 -0 0 12.9551 -7.855233 10.0925 4.005449 8.152913 -22.36519 0.2506139 -92.13381 21.40543 18.88605 0 0 -17.2544 13.0936 14.69103 -0.9423006
